# xmcd CD database file
#
# Track frame offsets:
#	150
#	14462
#	30900
#	47641
#	58554
#	85866
#	98772
#	113611
#	129341
#	141052
#	151836
#	169801
#
# Disc length: 2451 seconds
#
# Revision: 0
# Processed by: cddbd v1.4PL0 Copyright (c) Steve Scherf et al.
# Submitted via: Feurio! 1.63 - http://www.feurio.com
#
DISCID=8709910c
DTITLE=Kerry Kearney - Blow Your House Down
DYEAR=1900
DGENRE=
TTITLE0=Blow your little house down
TTITLE1=Perfect day for a suicide
TTITLE2=Five time man
TTITLE3=Trouble in mind
TTITLE4=Runnin' weepin' tremblin'
TTITLE5=Roll out my soul
TTITLE6=Rubinesque
TTITLE7=Fell like I'm livin'
TTITLE8=Hotter than ice cream
TTITLE9=Big bone blues
TTITLE10=Fatherless boy
TTITLE11=Howlin' at the moon
EXTD=
EXTT0=
EXTT1=
EXTT2=
EXTT3=
EXTT4=
EXTT5=
EXTT6=
EXTT7=
EXTT8=
EXTT9=
EXTT10=
EXTT11=
PLAYORDER=
